# xmcd CD database file
#
# Track frame offsets:
#	150
#	17837
#	41819
#	74655
#	93777
#	119056
#	140583
#	157352
#	182034
#	205700
#
# Disc length: 3040 seconds
#
# Revision: 0
# Processed by: cddbd v1.5.2PL0 Copyright (c) Steve Scherf et al.
# Submitted via: jetAudio 7
#
DISCID=980bde0a
DTITLE=KING KING - Standing In The Shadows
DYEAR=1900
DGENRE=Blues
TTITLE0=More than I can Take
TTITLE1=Taken What's Mine
TTITLE2=A Long History of Love
TTITLE3=Jealousy
TTITLE4=What Am I Supposed To Do
TTITLE5=One More Time Around
TTITLE6=Can't Keep From Trying
TTITLE7=Coming Home (Rest Your Eyes)
TTITLE8=Heavy Load
TTITLE9=Let Love In
EXTD=
EXTT0=
EXTT1=
EXTT2=
EXTT3=
EXTT4=
EXTT5=
EXTT6=
EXTT7=
EXTT8=
EXTT9=
PLAYORDER=
